<svg xmlns="http://www.w3.org/2000/svg" xmlns:xlink="http://www.w3.org/1999/xlink" width="31.6" height="31.601" viewBox="0 0 31.6 31.601"><defs><clipPath id="a"><path d="M332.172,0a15.8,15.8,0,1,0,15.8,15.8A15.8,15.8,0,0,0,332.172,0Z" transform="translate(-316.372)" fill="none"/></clipPath><linearGradient id="b" x1="-6.277" y1="1" x2="-6.257" y2="1" gradientUnits="objectBoundingBox"><stop offset="0" stop-color="#fdda74"/><stop offset="1" stop-color="#e64850"/></linearGradient></defs><g transform="translate(-6394.372 242)"><g transform="translate(6394.372 -242)" clip-path="url(#a)"><rect width="31.6" height="31.601" transform="translate(0 0)" fill="url(#b)"/></g><path d="M349.673,31.308a1.642,1.642,0,1,0,3.224,0,1.642,1.642,0,1,0-3.224,0" transform="translate(6065.577 -252.949)" fill="#3c3c3b"/><path d="M344.334,29.09a.62.62,0,0,1-.033-1.239c4.387-.236,8.535-1.021,8.877-1.68a.6.6,0,0,1,.616-.6.638.638,0,0,1,.616.645c0,1.928-5.461,2.625-10.042,2.871h-.034" transform="translate(6067.8 -251.54)" fill="#3c3c3b"/><path d="M331.05,31.308a1.642,1.642,0,1,1-3.224,0,1.642,1.642,0,1,1,3.224,0" transform="translate(6073.727 -252.949)" fill="#3c3c3b"/><path d="M331.944,29.1h-.034c-4.582-.246-10.043-.943-10.043-2.871a.62.62,0,1,1,1.241,0c.334.612,4.483,1.4,8.869,1.632a.62.62,0,0,1-.032,1.239" transform="translate(6075.951 -251.554)" fill="#3c3c3b"/><path d="M342.421,41.438a.61.61,0,0,1-.169-.024,16.178,16.178,0,0,0-7.623,0,.62.62,0,0,1-.328-1.2,17.157,17.157,0,0,1,8.291,0,.62.62,0,0,1-.17,1.217" transform="translate(6071.481 -256.81)" fill="#3c3c3b"/></g></svg>