<svg xmlns="http://www.w3.org/2000/svg" width="31.6" height="31.6" viewBox="0 0 31.6 31.6"><g transform="translate(-6202.965 242)"><path d="M156.565,15.8A15.8,15.8,0,1,1,140.765,0a15.8,15.8,0,0,1,15.8,15.8" transform="translate(6078 -242)" fill="#fdda74"/><path d="M154.891,25.512a11.667,11.667,0,0,1-23.333,0Z" transform="translate(6075.541 -251.517)" fill="#3c3c3b"/><path d="M145.127,32.446a11.622,11.622,0,0,0-8.47,3.659,11.63,11.63,0,0,0,16.94,0,11.622,11.622,0,0,0-8.47-3.659" transform="translate(6073.638 -254.104)" fill="#f25268"/><path d="M132.444,16.85a.62.62,0,0,1-.126-1.228l4.767-.993L133.472,12.6a.62.62,0,1,1,.607-1.081l5.057,2.839a.62.62,0,0,1-.177,1.148l-6.387,1.331a.642.642,0,0,1-.128.013" transform="translate(6075.44 -246.268)" fill="#3c3c3b"/><path d="M163.352,16.85a.631.631,0,0,1-.127-.013l-6.388-1.331a.62.62,0,0,1-.177-1.148l5.057-2.839a.62.62,0,1,1,.607,1.081l-3.613,2.029,4.767.993a.62.62,0,0,1-.126,1.228" transform="translate(6066.294 -246.268)" fill="#3c3c3b"/></g></svg>