<svg xmlns="http://www.w3.org/2000/svg" width="31.596" height="31.596" viewBox="0 0 31.596 31.596"><g transform="translate(-6078 242)"><path d="M31.6,15.8A15.8,15.8,0,1,1,15.8,0,15.8,15.8,0,0,1,31.6,15.8" transform="translate(6078 -242)" fill="#4080ff"/><rect width="4.118" height="9.266" transform="translate(6084.947 -228.646)" fill="#fff"/><path d="M30.791,18.481a1.444,1.444,0,0,0-.767-2.67H25.589a24.07,24.07,0,0,0-.07-3.829c-.258-2.316-2.7-1.287-2.7-1.287,1.287,2.831-2.7,7.85-2.7,7.85v7.5H28.37A1.447,1.447,0,0,0,29.4,23.575a1.442,1.442,0,0,0,.827-2.445,1.44,1.44,0,0,0,.567-2.65" transform="translate(6070.494 -245.905)" fill="#fff"/></g></svg>