<svg xmlns="http://www.w3.org/2000/svg" width="31.6" height="31.6" viewBox="0 0 31.6 31.6"><g transform="translate(-6140.482 242)"><path d="M94.082,15.8A15.8,15.8,0,1,1,78.282,0a15.8,15.8,0,0,1,15.8,15.8" transform="translate(6078 -242)" fill="#f25268"/><path d="M81.77,30.232l7.761-6.278a5.763,5.763,0,0,0,1.889-2.707C92.845,16.778,88.792,12,84,13.874a5.492,5.492,0,0,0-2.225,2.2,5.492,5.492,0,0,0-2.225-2.2c-4.8-1.877-8.85,2.9-7.425,7.373a5.763,5.763,0,0,0,1.889,2.707Z" transform="translate(6074.512 -247.019)" fill="#fff"/></g></svg>