<svg xmlns="http://www.w3.org/2000/svg" width="31.6" height="31.6" viewBox="0 0 31.6 31.6"><g transform="translate(-6329.25 242)"><path d="M282.85,15.8A15.8,15.8,0,1,1,267.05,0a15.8,15.8,0,0,1,15.8,15.8" transform="translate(6078 -242)" fill="#fdda74"/><path d="M265.08,22.121a2.034,2.034,0,1,1-3.992,0,2.034,2.034,0,1,1,3.992,0" transform="translate(6074.33 -249.349)" fill="#3c3c3b"/><path d="M258.683,18.223a.62.62,0,0,1-.574-.856,3.726,3.726,0,0,1,4.861-2.031.62.62,0,0,1-.471,1.148,2.484,2.484,0,0,0-3.242,1.354.62.62,0,0,1-.574.384" transform="translate(6075.458 -247.616)" fill="#3c3c3b"/><path d="M285.449,22.121a2.034,2.034,0,1,0,3.992,0,2.034,2.034,0,1,0-3.992,0" transform="translate(6065.242 -249.349)" fill="#3c3c3b"/><path d="M291.072,18.223a.621.621,0,0,1-.574-.384,2.484,2.484,0,0,0-3.243-1.354.62.62,0,0,1-.471-1.148,3.725,3.725,0,0,1,4.862,2.031.62.62,0,0,1-.574.856" transform="translate(6064.887 -247.616)" fill="#3c3c3b"/><path d="M277.453,36.6a.622.622,0,0,1-.5-.253,5.625,5.625,0,0,0-9.1,0,.621.621,0,0,1-1-.734,6.868,6.868,0,0,1,11.106,0,.62.62,0,0,1-.5.987" transform="translate(6072.226 -254.23)" fill="#3c3c3b"/><path d="M291.013,43.148h0a2.983,2.983,0,0,1-2.77-4.09l2.77-6.929,2.77,6.929a2.983,2.983,0,0,1-2.77,4.09" transform="translate(6064.28 -253.986)" fill="#4f90fc"/></g></svg>