<svg xmlns="http://www.w3.org/2000/svg" width="31.6" height="31.6" viewBox="0 0 31.6 31.6"><g transform="translate(-6266.767 242)"><path d="M220.367,15.8A15.8,15.8,0,1,1,204.567,0a15.8,15.8,0,0,1,15.8,15.8" transform="translate(6078 -242)" fill="#fdda74"/><path d="M215.625,32.2c0,3.413-1.831,6.18-4.09,6.18s-4.09-2.767-4.09-6.18,1.831-6.18,4.09-6.18,4.09,2.767,4.09,6.18" transform="translate(6071.032 -251.707)" fill="#3c3c3b"/><path d="M202.961,17.478c0,1.666-.893,3.016-2,3.016s-2-1.35-2-3.016.894-3.016,2-3.016,2,1.35,2,3.016" transform="translate(6074.194 -247.395)" fill="#3c3c3b"/><path d="M226.594,17.478c0,1.666-.894,3.016-2,3.016s-2-1.35-2-3.016.894-3.016,2-3.016,2,1.35,2,3.016" transform="translate(6065.377 -247.395)" fill="#3c3c3b"/><path d="M203.193,8.295a.617.617,0,0,1-.438-.182,2.546,2.546,0,0,0-3.515,0,.62.62,0,1,1-.877-.877,3.726,3.726,0,0,1,5.268,0,.62.62,0,0,1-.438,1.059" transform="translate(6074.488 -244.292)" fill="#3c3c3b"/><path d="M225.421,8.295a.617.617,0,0,1-.438-.182,2.546,2.546,0,0,0-3.515,0,.62.62,0,0,1-.876-.877,3.726,3.726,0,0,1,5.268,0,.62.62,0,0,1-.439,1.059" transform="translate(6066.195 -244.292)" fill="#3c3c3b"/></g></svg>